<?xml version="1.0" encoding="utf-8"?><svg version="1.1" id="Layer_1" xmlns="http://www.w3.org/2000/svg" xmlns:xlink="http://www.w3.org/1999/xlink" x="0px" y="0px" viewBox="0 0 122.1 121.53" style="enable-background:new 0 0 122.1 121.53" xml:space="preserve"><g><path d="M74.81,34.32l0.23-0.99l1.37-6.05h16.68l-9.6,45.32c-0.17,0.82-0.33,1.55-0.45,2.21v0c-0.3,1.64-0.44,2.79-0.44,3.46 c0,0.97,0.24,1.75,0.71,2.29c0.5,0.54,1.08,0.82,1.75,0.82c2.26,0,5.22-1.49,8.82-4.46c3.58-2.96,6.73-7.01,9.41-12.12 c2.67-5.11,4.01-10.7,4.01-16.78c0-5.05-0.95-9.81-2.87-14.28c-1.92-4.47-4.7-8.33-8.31-11.63c-3.62-3.28-8.11-5.85-13.44-7.7 c-5.33-1.85-11.37-2.78-18.1-2.78c-6.88,0-13.18,0.91-18.9,2.7c-5.74,1.79-10.76,4.36-15.1,7.7c-4.34,3.34-7.96,7.49-10.87,12.42 c-2.57,4.29-4.53,9.06-5.87,14.28c-1.36,5.22-2.03,10.55-2.03,15.98c0,7.25,1.45,13.87,4.34,19.87c2.87,6.02,7.07,11.05,12.58,15.1 c5.48,4.08,12.12,6.97,19.93,8.67c7.79,1.7,16.59,2.05,26.41,1.03c7.79-0.93,14.39-2.7,19.8-5.31c5.41-2.61,10.01-6.28,13.76-11 h13.46c-2.18,4.51-5.05,8.54-8.56,12.08c-3.51,3.54-7.64,6.51-12.36,8.95c-4.7,2.42-9.99,4.25-15.86,5.52 c-5.84,1.27-12.23,1.9-19.16,1.9c-10.35,0-19.69-1.36-27.98-4.08c-8.31-2.72-15.29-6.64-20.97-11.76 c-5.65-5.11-9.95-11.22-12.86-18.34C1.44,80.27,0,72.44,0,63.83c0-8.97,1.49-17.37,4.49-25.16c3-7.78,7.29-14.56,12.92-20.32 C23.04,12.6,29.9,8.11,38.01,4.88C46.12,1.62,55.07,0,64.85,0c8,0,15.34,1.17,22.02,3.51c6.67,2.33,12.4,5.7,17.15,10.07 c4.77,4.38,8.39,9.58,10.92,15.58c2.5,6,3.75,12.62,3.75,19.87c0,5.65-1.01,11.17-3.04,16.59c-2.01,5.41-4.92,10.29-8.69,14.61 c-3.75,4.31-8.2,7.72-13.29,10.25c-5.11,2.5-10.61,3.75-16.5,3.75c-3.41,0-6.06-0.58-7.96-1.75c-1.9-1.14-3.17-3-3.8-5.52 c-0.96,0.95-1.96,1.8-2.99,2.57c-0.83,0.62-1.69,1.17-2.58,1.67c-2.2,1.24-4.56,2.12-7.07,2.62c-4.77,0.95-9.38,0.5-13.85-1.34 c-4.47-1.84-8.07-4.92-10.83-9.26c-2.76-4.34-4.14-9.68-4.14-16.05c0-6.62,1.42-13.11,4.27-19.52C31.06,41.25,35.1,36,40.34,31.91 c5.24-4.08,11.17-6.13,17.8-6.13c7.37,0,12.84,2.69,16.38,8.08L74.81,34.32L74.81,34.32z M40.25,67.05c0,5.07,1.06,8.93,3.15,11.63 c2.11,2.7,4.88,4.06,8.28,4.06c3.97,0,7.44-1.6,10.46-4.75c0.89-0.93,1.71-1.94,2.47-3.01c0.51-0.72,1-1.48,1.45-2.27 c1.17-2.02,2.15-4.25,2.94-6.7c1.53-4.77,2.31-9.38,2.33-13.84v-0.16c0-0.99-0.05-1.94-0.15-2.84c-0.13-1.12-0.34-2.18-0.63-3.18 c-0.54-1.79-1.31-3.36-2.35-4.73c-1.04-1.34-2.26-2.35-3.73-3.06c-1.45-0.69-3.11-1.03-4.96-1.03c-3.69,0-7.03,1.44-10.01,4.34 c-2.95,2.84-5.2,6.55-6.81,11.11l0,0l-0.05,0.12C41.05,57.36,40.25,62.13,40.25,67.05L40.25,67.05z"/></g></svg>